<svg xmlns="http://www.w3.org/2000/svg" viewBox="0 0 171.81 176.83"><defs><style>.cls-1{fill:#5f6568;}.cls-2{fill:#ffdb24;}</style></defs><title>block-logo</title><g id="Layer_2" data-name="Layer 2"><g id="Layer_1-2" data-name="Layer 1"><path class="cls-1" d="M0,172.73l2.66-3.17a11.6,11.6,0,0,0,8,3.28c2.74,0,4.46-1.26,4.46-3.17v-.07c0-1.8-1-2.77-5.69-3.85C4,164.45,1,162.87,1,158.22v-.07c0-4.32,3.6-7.31,8.6-7.31A14,14,0,0,1,18.76,154l-2.38,3.35a11.45,11.45,0,0,0-6.84-2.59c-2.59,0-4.1,1.33-4.1,3v.07c0,1.94,1.15,2.81,6,4,5.33,1.3,8.1,3.21,8.1,7.38v.07c0,4.72-3.71,7.52-9,7.52A15.53,15.53,0,0,1,0,172.73Z"/><path class="cls-1" d="M35.64,176.4v-2.34a7.68,7.68,0,0,1-6.15,2.73c-3.6,0-6.77-2.05-6.77-5.87v-.07c0-4.21,3.28-6.23,7.7-6.23a16,16,0,0,1,5.26.79v-.36C35.67,162.43,34,161,31,161a13.2,13.2,0,0,0-5.44,1.19l-1.19-3.49a16.31,16.31,0,0,1,7.24-1.58c5.61,0,8.35,3,8.35,8V176.4Zm.11-8a12.44,12.44,0,0,0-4.35-.76c-2.74,0-4.36,1.12-4.36,3v.07c0,1.8,1.62,2.81,3.67,2.81,2.88,0,5-1.62,5-4Z"/><path class="cls-1" d="M45.53,161.14H43.12V157.5h2.41v-1.37a6.47,6.47,0,0,1,1.55-4.71,5.76,5.76,0,0,1,4.28-1.51,11.66,11.66,0,0,1,3.53.51v3.67a7.66,7.66,0,0,0-2.56-.47c-1.65,0-2.52.9-2.52,2.88v1h5v3.6h-5V176.4H45.53Z"/><path class="cls-1" d="M56.58,167v-.07c0-5.44,3.85-9.9,9.29-9.9,6,0,9.11,4.75,9.11,10.23,0,.39,0,.79-.07,1.22h-14a5.31,5.31,0,0,0,5.47,4.82A6.89,6.89,0,0,0,71.56,171l2.56,2.27a9.61,9.61,0,0,1-7.77,3.56A9.48,9.48,0,0,1,56.58,167Zm14.08-1.4c-.29-2.81-1.94-5-4.83-5-2.66,0-4.53,2.05-4.93,5Z"/><path class="cls-1" d="M75.93,151.2h4.79l6,18.68,6.19-18.76h3.74l6.19,18.76,6-18.68h4.64l-8.78,25.38h-3.81l-6.19-18.11-6.19,18.11H84.72Z"/><path class="cls-1" d="M114.55,167v-.07a10.14,10.14,0,0,1,20.27-.07v.07a9.94,9.94,0,0,1-10.19,9.9A9.83,9.83,0,0,1,114.55,167Zm15.91,0v-.07a5.88,5.88,0,0,0-5.83-6.12c-3.49,0-5.72,2.74-5.72,6v.07a5.89,5.89,0,0,0,5.8,6.12A5.73,5.73,0,0,0,130.46,167Z"/><path class="cls-1" d="M138.87,157.4h4.36v4.28c1.19-2.84,3.38-4.79,6.73-4.65v4.61h-.25c-3.82,0-6.48,2.49-6.48,7.53v7.23h-4.36Z"/><path class="cls-1" d="M152.16,166.94v-.07c0-6.3,4.28-9.86,8.82-9.86a7.87,7.87,0,0,1,6.48,3.35V150.12h4.35V176.4h-4.35v-3.17A7.61,7.61,0,0,1,161,176.8C156.51,176.8,152.16,173.23,152.16,166.94Zm15.37,0v-.07c0-3.67-2.59-6.08-5.51-6.08s-5.47,2.3-5.47,6.08v.07c0,3.67,2.52,6.08,5.47,6.08S167.53,170.57,167.53,166.94Z"/><path class="cls-1" d="M128.59,10.82a63.2,63.2,0,0,1-6.75.37A61.59,61.59,0,0,1,86.32,0V0l0,0,0,0V0A61.59,61.59,0,0,1,50.76,11.19,63.2,63.2,0,0,1,44,10.82C33.3,23.32,28,50.93,32,66.13c8.57,32.81,45.36,45.73,54.27,48.41v0h.06v0c8.91-2.68,45.7-15.6,54.27-48.41C144.56,50.93,139.29,23.32,128.59,10.82Z"/><path class="cls-2" d="M64.49,55.39,61,58a2.07,2.07,0,0,1-1.17.47,1.6,1.6,0,0,1-1.54-1.59,1.7,1.7,0,0,1,1.07-1.45l4.11-1.78-4.11-1.82a1.63,1.63,0,0,1-1.07-1.45,1.6,1.6,0,0,1,1.59-1.54,1.69,1.69,0,0,1,1.12.47l3.5,2.57L64,47.68a1.47,1.47,0,0,1,1.45-1.77,1.44,1.44,0,0,1,1.45,1.73l-.47,4.2L70,49.27a1.79,1.79,0,0,1,1.17-.47,1.55,1.55,0,0,1,1.54,1.54,1.57,1.57,0,0,1-1.07,1.45l-4.11,1.82,4.11,1.78a1.63,1.63,0,0,1,1.07,1.49,1.59,1.59,0,0,1-1.59,1.54A2.07,2.07,0,0,1,70,58l-3.5-2.57.47,4.16a1.47,1.47,0,0,1-1.45,1.77A1.44,1.44,0,0,1,64,59.59Z"/><path class="cls-2" d="M84.58,55.39,81.07,58a2.07,2.07,0,0,1-1.17.47,1.6,1.6,0,0,1-1.54-1.59,1.69,1.69,0,0,1,1.08-1.45l4.11-1.78-4.11-1.82a1.63,1.63,0,0,1-1.08-1.45A1.6,1.6,0,0,1,80,48.8a1.68,1.68,0,0,1,1.12.47l3.5,2.57-.47-4.16a1.47,1.47,0,0,1,1.45-1.77A1.44,1.44,0,0,1,87,47.64l-.47,4.2L90,49.27a1.8,1.8,0,0,1,1.17-.47,1.55,1.55,0,0,1,1.54,1.54,1.57,1.57,0,0,1-1.07,1.45l-4.11,1.82,4.11,1.78a1.63,1.63,0,0,1,1.07,1.49,1.59,1.59,0,0,1-1.59,1.54A2.08,2.08,0,0,1,90,58l-3.5-2.57L87,59.54a1.48,1.48,0,0,1-1.45,1.77,1.44,1.44,0,0,1-1.45-1.73Z"/><path class="cls-2" d="M104.67,55.39,101.16,58a2.06,2.06,0,0,1-1.17.47,1.59,1.59,0,0,1-1.54-1.59,1.69,1.69,0,0,1,1.07-1.45l4.11-1.78-4.11-1.82a1.63,1.63,0,0,1-1.07-1.45A1.6,1.6,0,0,1,100,48.8a1.67,1.67,0,0,1,1.12.47l3.51,2.57-.47-4.16a1.48,1.48,0,0,1,1.45-1.77,1.44,1.44,0,0,1,1.45,1.73l-.47,4.2,3.5-2.57a1.8,1.8,0,0,1,1.17-.47,1.56,1.56,0,0,1,1.54,1.54,1.58,1.58,0,0,1-1.08,1.45l-4.11,1.82,4.11,1.78a1.64,1.64,0,0,1,1.08,1.49,1.59,1.59,0,0,1-1.59,1.54,2.08,2.08,0,0,1-1.12-.47l-3.5-2.57.47,4.16a1.47,1.47,0,0,1-1.45,1.77,1.44,1.44,0,0,1-1.45-1.73Z"/><path class="cls-2" d="M128.25,73.67H42.79V32.76h85.46ZM45.52,70.95h80V35.49h-80Z"/></g></g></svg>