<svg xmlns="http://www.w3.org/2000/svg" viewBox="0 0 380 245.35"><defs><style>.cls-1{fill:#fff;}.cls-2{fill:#4d5254;}.cls-3{fill:#fed93e;}</style></defs><title>logo-for-submission</title><g id="Layer_2" data-name="Layer 2"><g id="Layer_1-2" data-name="Layer 1"><rect class="cls-1" width="380" height="245.35"/><path class="cls-2" d="M162.62,130.86l2.58-3.07a11.23,11.23,0,0,0,7.7,3.17c2.65,0,4.32-1.22,4.32-3.07v-.07c0-1.74-1-2.68-5.5-3.73-5.19-1.25-8.12-2.79-8.12-7.28v-.07c0-4.18,3.49-7.07,8.33-7.07a13.52,13.52,0,0,1,8.85,3.07l-2.3,3.24a11.08,11.08,0,0,0-6.62-2.51c-2.51,0-4,1.29-4,2.89v.07c0,1.88,1.12,2.72,5.78,3.83,5.16,1.25,7.84,3.1,7.84,7.14v.07c0,4.56-3.59,7.28-8.71,7.28A15,15,0,0,1,162.62,130.86Z"/><path class="cls-2" d="M197.22,134.42v-2.26a7.43,7.43,0,0,1-6,2.65c-3.48,0-6.55-2-6.55-5.68v-.07c0-4.08,3.17-6,7.46-6a15.48,15.48,0,0,1,5.09.77v-.35c0-2.54-1.6-3.94-4.53-3.94a12.8,12.8,0,0,0-5.26,1.15l-1.15-3.38a15.79,15.79,0,0,1,7-1.53c5.43,0,8.08,2.86,8.08,7.77v10.9Zm.1-7.7a12.06,12.06,0,0,0-4.22-.73c-2.65,0-4.22,1.08-4.22,2.86v.07c0,1.74,1.57,2.72,3.55,2.72,2.79,0,4.88-1.57,4.88-3.87Z"/><path class="cls-2" d="M206.91,119.65h-2.34v-3.52h2.34v-1.32a6.26,6.26,0,0,1,1.5-4.56,5.57,5.57,0,0,1,4.15-1.46,11.28,11.28,0,0,1,3.41.49v3.55a7.44,7.44,0,0,0-2.48-.45c-1.6,0-2.44.87-2.44,2.79v1h4.88v3.48h-4.81v14.77h-4.21Z"/><path class="cls-2" d="M217.72,125.29v-.07c0-5.26,3.73-9.58,9-9.58,5.85,0,8.81,4.6,8.81,9.89,0,.38,0,.77-.07,1.18H221.93a5.14,5.14,0,0,0,5.3,4.67,6.68,6.68,0,0,0,5-2.19l2.47,2.19a9.3,9.3,0,0,1-7.52,3.45A9.18,9.18,0,0,1,217.72,125.29Zm13.62-1.36c-.28-2.72-1.88-4.84-4.67-4.84-2.58,0-4.39,2-4.77,4.84Z"/><path class="cls-2" d="M236.58,110h4.63L247,128.11,253,110h3.62l6,18.15L268.45,110h4.49l-8.5,24.56h-3.69l-6-17.52-6,17.52h-3.69Z"/><path class="cls-2" d="M274.1,125.33v-.07a9.81,9.81,0,0,1,19.61-.07v.07a9.62,9.62,0,0,1-9.86,9.58A9.51,9.51,0,0,1,274.1,125.33Zm15.4,0v-.07a5.68,5.68,0,0,0-5.64-5.92,5.52,5.52,0,0,0-5.54,5.85v.07a5.7,5.7,0,0,0,5.61,5.92A5.55,5.55,0,0,0,289.5,125.33Z"/><path class="cls-2" d="M297.76,116H302v4.15c1.15-2.75,3.27-4.63,6.51-4.49v4.46h-.24c-3.69,0-6.27,2.4-6.27,7.28v7h-4.22Z"/><path class="cls-2" d="M310.72,125.26v-.07c0-6.1,4.14-9.55,8.54-9.55a7.61,7.61,0,0,1,6.27,3.24V109h4.22v25.43h-4.22v-3.07a7.36,7.36,0,0,1-6.27,3.45C314.94,134.8,310.72,131.35,310.72,125.26Zm14.88,0v-.07c0-3.55-2.51-5.89-5.33-5.89s-5.29,2.23-5.29,5.89v.07c0,3.55,2.44,5.89,5.29,5.89S325.6,128.77,325.6,125.26Z"/><path class="cls-3" d="M134.63,86.35a53.54,53.54,0,0,1-5.72.31,52.18,52.18,0,0,1-30.09-9.45v0l0,0,0,0v0a52.18,52.18,0,0,1-30.09,9.45A53.54,53.54,0,0,1,63,86.35c-9.07,10.6-13.54,34-10.17,46.86,7.26,27.8,38.43,38.74,46,41h0c7.55-2.27,38.72-13.21,46-41C148.17,120.34,143.7,97,134.63,86.35Z"/><path class="cls-2" d="M80.33,124.11l-3,2.18a1.75,1.75,0,0,1-1,.4,1.35,1.35,0,0,1-1.31-1.34,1.44,1.44,0,0,1,.91-1.23l3.48-1.5L76,121.07a1.38,1.38,0,0,1-.91-1.23,1.35,1.35,0,0,1,1.34-1.3,1.42,1.42,0,0,1,1,.39l3,2.18-.39-3.52a1.25,1.25,0,0,1,1.23-1.5,1.22,1.22,0,0,1,1.23,1.46L82,121.11l3-2.18a1.52,1.52,0,0,1,1-.39,1.32,1.32,0,0,1,1.3,1.3,1.33,1.33,0,0,1-.91,1.23l-3.48,1.54,3.48,1.5a1.39,1.39,0,0,1,.91,1.27,1.35,1.35,0,0,1-1.34,1.31,1.76,1.76,0,0,1-.95-.4l-3-2.18.39,3.52a1.25,1.25,0,0,1-1.23,1.5,1.22,1.22,0,0,1-1.23-1.47Z"/><path class="cls-2" d="M97.34,124.11l-3,2.18a1.75,1.75,0,0,1-1,.4,1.35,1.35,0,0,1-1.31-1.34,1.44,1.44,0,0,1,.91-1.23l3.48-1.5L93,121.07a1.38,1.38,0,0,1-.91-1.23,1.35,1.35,0,0,1,1.34-1.3,1.42,1.42,0,0,1,1,.39l3,2.18-.39-3.52a1.25,1.25,0,0,1,1.23-1.5,1.22,1.22,0,0,1,1.23,1.46L99,121.11l3-2.18a1.52,1.52,0,0,1,1-.39,1.32,1.32,0,0,1,1.31,1.3,1.33,1.33,0,0,1-.91,1.23l-3.48,1.54,3.48,1.5a1.39,1.39,0,0,1,.91,1.27,1.35,1.35,0,0,1-1.34,1.31,1.76,1.76,0,0,1-1-.4l-3-2.18.39,3.52a1.25,1.25,0,0,1-1.23,1.5,1.22,1.22,0,0,1-1.23-1.47Z"/><path class="cls-2" d="M114.36,124.11l-3,2.18a1.75,1.75,0,0,1-1,.4,1.35,1.35,0,0,1-1.31-1.34,1.44,1.44,0,0,1,.91-1.23l3.48-1.5L110,121.07a1.38,1.38,0,0,1-.91-1.23,1.35,1.35,0,0,1,1.34-1.3,1.42,1.42,0,0,1,1,.39l3,2.18-.39-3.52a1.25,1.25,0,0,1,1.23-1.5,1.22,1.22,0,0,1,1.23,1.46l-.39,3.56,3-2.18a1.52,1.52,0,0,1,1-.39,1.32,1.32,0,0,1,1.3,1.3,1.33,1.33,0,0,1-.91,1.23l-3.48,1.54,3.48,1.5a1.39,1.39,0,0,1,.91,1.27,1.35,1.35,0,0,1-1.34,1.31,1.76,1.76,0,0,1-1-.4l-3-2.18.39,3.52a1.25,1.25,0,0,1-1.23,1.5,1.22,1.22,0,0,1-1.23-1.47Z"/><path class="cls-2" d="M130.78,108.51V136H65.51V108.51h65.27m2.41-2.41H63.1v32.35h70.09V106.1Z"/></g></g></svg>