<svg xmlns="http://www.w3.org/2000/svg" viewBox="0 0 144 144"><defs><style>.cls-1{fill:#fff;}.cls-2{fill:#5f6568;}.cls-3{fill:#ffdb24;}</style></defs><title>safeword-icon</title><g id="Layer_2" data-name="Layer 2"><g id="Layer_1-2" data-name="Layer 1"><rect class="cls-1" width="144" height="144"/><path class="cls-2" d="M114.29,28.82a63.2,63.2,0,0,1-6.75.37A61.59,61.59,0,0,1,72,18v0l0,0,0,0v0A61.59,61.59,0,0,1,36.46,29.19a63.2,63.2,0,0,1-6.75-.37c-10.7,12.51-16,40.11-12,55.31,8.57,32.81,45.36,45.73,54.27,48.41v0H72v0c8.91-2.68,45.7-15.6,54.27-48.41C130.27,68.93,125,41.32,114.29,28.82Z"/><path class="cls-3" d="M50.19,73.39,46.69,76a2.07,2.07,0,0,1-1.17.47A1.6,1.6,0,0,1,44,74.84a1.7,1.7,0,0,1,1.07-1.45l4.11-1.78-4.11-1.82A1.63,1.63,0,0,1,44,68.35a1.6,1.6,0,0,1,1.59-1.54,1.69,1.69,0,0,1,1.12.47l3.5,2.57-.47-4.16a1.47,1.47,0,0,1,1.45-1.77,1.44,1.44,0,0,1,1.45,1.73l-.47,4.2,3.5-2.57a1.79,1.79,0,0,1,1.17-.47,1.55,1.55,0,0,1,1.54,1.54,1.57,1.57,0,0,1-1.07,1.45l-4.11,1.82,4.11,1.78a1.63,1.63,0,0,1,1.07,1.49,1.59,1.59,0,0,1-1.59,1.54A2.07,2.07,0,0,1,55.66,76l-3.5-2.57.47,4.16a1.47,1.47,0,0,1-1.45,1.77,1.44,1.44,0,0,1-1.45-1.73Z"/><path class="cls-3" d="M70.28,73.39,66.78,76a2.07,2.07,0,0,1-1.17.47,1.6,1.6,0,0,1-1.54-1.59,1.69,1.69,0,0,1,1.08-1.45l4.11-1.78-4.11-1.82a1.63,1.63,0,0,1-1.08-1.45,1.6,1.6,0,0,1,1.59-1.54,1.68,1.68,0,0,1,1.12.47l3.5,2.57-.47-4.16a1.47,1.47,0,0,1,1.45-1.77,1.44,1.44,0,0,1,1.45,1.73l-.47,4.2,3.5-2.57a1.8,1.8,0,0,1,1.17-.47,1.55,1.55,0,0,1,1.54,1.54,1.57,1.57,0,0,1-1.07,1.45l-4.11,1.82,4.11,1.78a1.63,1.63,0,0,1,1.07,1.49,1.59,1.59,0,0,1-1.59,1.54A2.08,2.08,0,0,1,75.74,76l-3.5-2.57.47,4.16a1.48,1.48,0,0,1-1.45,1.77,1.44,1.44,0,0,1-1.45-1.73Z"/><path class="cls-3" d="M90.37,73.39,86.86,76a2.06,2.06,0,0,1-1.17.47,1.59,1.59,0,0,1-1.54-1.59,1.69,1.69,0,0,1,1.07-1.45l4.11-1.78-4.11-1.82a1.63,1.63,0,0,1-1.07-1.45,1.6,1.6,0,0,1,1.59-1.54,1.67,1.67,0,0,1,1.12.47l3.51,2.57-.47-4.16a1.48,1.48,0,0,1,1.45-1.77,1.44,1.44,0,0,1,1.45,1.73l-.47,4.2,3.5-2.57A1.8,1.8,0,0,1,97,66.8a1.56,1.56,0,0,1,1.54,1.54,1.58,1.58,0,0,1-1.08,1.45l-4.11,1.82,4.11,1.78a1.64,1.64,0,0,1,1.08,1.49A1.59,1.59,0,0,1,97,76.42,2.08,2.08,0,0,1,95.83,76l-3.5-2.57.47,4.16a1.47,1.47,0,0,1-1.45,1.77,1.44,1.44,0,0,1-1.45-1.73Z"/><path class="cls-3" d="M114,91.67H28.49V50.76H114ZM31.22,88.95h80V53.49h-80Z"/></g></g></svg>