<svg xmlns="http://www.w3.org/2000/svg" viewBox="0 0 276.89 100.32"><defs><style>.cls-1{fill:#5f6568;}.cls-2{fill:#ffdb24;}</style></defs><title>horizontal-small-text</title><g id="Layer_2" data-name="Layer 2"><g id="Layer_1-2" data-name="Layer 1"><path class="cls-1" d="M115.18,58.54l2.51-3a10.93,10.93,0,0,0,7.49,3.09c2.58,0,4.21-1.19,4.21-3v-.07c0-1.7-1-2.61-5.36-3.63-5.05-1.22-7.9-2.71-7.9-7.09v-.07c0-4.07,3.39-6.89,8.11-6.89a13.16,13.16,0,0,1,8.61,3l-2.24,3.15a10.78,10.78,0,0,0-6.44-2.44c-2.44,0-3.87,1.25-3.87,2.81v.07c0,1.83,1.09,2.65,5.63,3.73,5,1.22,7.63,3,7.63,7v.07c0,4.44-3.49,7.09-8.48,7.09A14.62,14.62,0,0,1,115.18,58.54Z"/><path class="cls-1" d="M148.74,62V59.8a7.24,7.24,0,0,1-5.8,2.58c-3.39,0-6.38-1.93-6.38-5.53v-.07c0-4,3.09-5.87,7.26-5.87a15.06,15.06,0,0,1,5,.75v-.34c0-2.48-1.56-3.83-4.41-3.83a12.46,12.46,0,0,0-5.12,1.12l-1.12-3.29a15.34,15.34,0,0,1,6.82-1.49c5.29,0,7.87,2.78,7.87,7.56V62Zm.1-7.5a11.74,11.74,0,0,0-4.1-.71c-2.58,0-4.1,1.05-4.1,2.78v.07c0,1.7,1.53,2.65,3.46,2.65,2.71,0,4.75-1.53,4.75-3.76Z"/><path class="cls-1" d="M158,47.62h-2.27V44.2H158V42.91a6.09,6.09,0,0,1,1.46-4.44,5.43,5.43,0,0,1,4-1.42,11,11,0,0,1,3.32.48V41a7.18,7.18,0,0,0-2.41-.44c-1.56,0-2.37.85-2.37,2.71v1h4.75v3.39h-4.68V62H158Z"/><path class="cls-1" d="M168.42,53.12V53c0-5.12,3.63-9.33,8.75-9.33,5.7,0,8.58,4.48,8.58,9.63,0,.37,0,.75-.07,1.15H172.52a5,5,0,0,0,5.15,4.54,6.51,6.51,0,0,0,4.85-2.14l2.41,2.14a9.05,9.05,0,0,1-7.32,3.36A8.93,8.93,0,0,1,168.42,53.12Zm13.26-1.32c-.27-2.64-1.83-4.71-4.54-4.71-2.51,0-4.28,1.93-4.65,4.71Z"/><path class="cls-1" d="M186.62,38.26h4.51l5.66,17.6,5.83-17.67h3.53L212,55.86l5.67-17.6H222l-8.27,23.91h-3.6l-5.83-17.06-5.84,17.06H194.9Z"/><path class="cls-1" d="M223,53.15v-.07a9.55,9.55,0,0,1,19.1-.07v.07a9.36,9.36,0,0,1-9.6,9.33A9.26,9.26,0,0,1,223,53.15Zm15,0v-.07a5.53,5.53,0,0,0-5.49-5.77,5.37,5.37,0,0,0-5.39,5.7v.07a5.55,5.55,0,0,0,5.46,5.77A5.4,5.4,0,0,0,238,53.15Z"/><path class="cls-1" d="M245.88,44.1H250v4c1.12-2.68,3.19-4.51,6.34-4.38V48.1h-.24c-3.6,0-6.11,2.34-6.11,7.09V62h-4.1Z"/><path class="cls-1" d="M258.37,53.08V53c0-5.94,4-9.29,8.31-9.29a7.4,7.4,0,0,1,6.1,3.15V37.25h4.11V62h-4.11V59a7.16,7.16,0,0,1-6.1,3.36C262.47,62.38,258.37,59,258.37,53.08Zm14.48,0V53c0-3.46-2.44-5.73-5.19-5.73s-5.15,2.17-5.15,5.73v.07c0,3.46,2.37,5.73,5.15,5.73S272.85,56.51,272.85,53.08Z"/><path class="cls-1" d="M85.75,9.47a55.35,55.35,0,0,1-5.91.33A53.94,53.94,0,0,1,48.73,0V0l0,0,0,0V0A53.94,53.94,0,0,1,17.58,9.8a55.35,55.35,0,0,1-5.91-.33c-9.37,11-14,35.13-10.51,48.44,7.51,28.74,39.72,40,47.53,42.39h0c7.8-2.35,40-13.66,47.53-42.39C99.74,44.6,95.12,20.43,85.75,9.47Z"/><path class="cls-2" d="M29.61,48.51l-3.07,2.25a1.81,1.81,0,0,1-1,.41,1.4,1.4,0,0,1-1.35-1.39,1.49,1.49,0,0,1,.94-1.27L28.71,47l-3.6-1.59a1.42,1.42,0,0,1-.94-1.27,1.4,1.4,0,0,1,1.39-1.35,1.47,1.47,0,0,1,1,.41l3.07,2.25-.41-3.64a1.29,1.29,0,0,1,1.27-1.55,1.26,1.26,0,0,1,1.27,1.51l-.41,3.68,3.07-2.25a1.57,1.57,0,0,1,1-.41,1.36,1.36,0,0,1,1.35,1.35,1.38,1.38,0,0,1-.94,1.27L32.23,47l3.6,1.55a1.43,1.43,0,0,1,.94,1.31,1.4,1.4,0,0,1-1.39,1.35,1.82,1.82,0,0,1-1-.41l-3.07-2.25.41,3.64a1.29,1.29,0,0,1-1.27,1.55,1.26,1.26,0,0,1-1.27-1.51Z"/><path class="cls-2" d="M47.2,48.51l-3.07,2.25a1.81,1.81,0,0,1-1,.41,1.4,1.4,0,0,1-1.35-1.39,1.49,1.49,0,0,1,.94-1.27L46.3,47l-3.6-1.59a1.42,1.42,0,0,1-.94-1.27,1.4,1.4,0,0,1,1.39-1.35,1.47,1.47,0,0,1,1,.41L47.2,45.4l-.41-3.64a1.29,1.29,0,0,1,1.27-1.55,1.26,1.26,0,0,1,1.27,1.51l-.41,3.68L52,43.15a1.57,1.57,0,0,1,1-.41,1.36,1.36,0,0,1,1.35,1.35,1.38,1.38,0,0,1-.94,1.27L49.82,47l3.6,1.55a1.43,1.43,0,0,1,.94,1.31A1.4,1.4,0,0,1,53,51.16a1.82,1.82,0,0,1-1-.41l-3.07-2.25.41,3.64a1.29,1.29,0,0,1-1.27,1.55,1.26,1.26,0,0,1-1.27-1.51Z"/><path class="cls-2" d="M64.8,48.51l-3.07,2.25a1.81,1.81,0,0,1-1,.41,1.4,1.4,0,0,1-1.35-1.39,1.49,1.49,0,0,1,.94-1.27L63.9,47l-3.6-1.59a1.42,1.42,0,0,1-.94-1.27,1.4,1.4,0,0,1,1.39-1.35,1.47,1.47,0,0,1,1,.41L64.8,45.4l-.41-3.64a1.29,1.29,0,0,1,1.27-1.55,1.26,1.26,0,0,1,1.27,1.51l-.41,3.68,3.07-2.25a1.57,1.57,0,0,1,1-.41A1.36,1.36,0,0,1,72,44.09,1.38,1.38,0,0,1,71,45.36L67.41,47,71,48.51A1.43,1.43,0,0,1,72,49.81a1.4,1.4,0,0,1-1.39,1.35,1.82,1.82,0,0,1-1-.41l-3.07-2.25.41,3.64a1.29,1.29,0,0,1-1.27,1.55,1.26,1.26,0,0,1-1.27-1.51Z"/><path class="cls-2" d="M81.77,32.38V60.84H14.29V32.38H81.77m2.49-2.49H11.8V63.33H84.26V29.89Z"/></g></g></svg>