<svg xmlns="http://www.w3.org/2000/svg" viewBox="0 0 342.89 100.32"><defs><style>.cls-1{fill:#2E3133;}.cls-2{fill:#ffdb24;}</style></defs><title>horizontal-logo</title><g id="Layer_2" data-name="Layer 2"><g id="Layer_1-2" data-name="Layer 1"><path class="cls-1" d="M115.18,62.14l3.54-4.2c3.2,2.77,6.4,4.35,10.55,4.35,3.63,0,5.92-1.67,5.92-4.2V58c0-2.39-1.34-3.68-7.55-5.11-7.12-1.72-11.13-3.82-11.13-10v-.1c0-5.73,4.78-9.7,11.41-9.7a18.53,18.53,0,0,1,12.13,4.2l-3.15,4.44a15.18,15.18,0,0,0-9.07-3.44c-3.44,0-5.44,1.77-5.44,4v.1c0,2.58,1.53,3.73,7.93,5.25,7.07,1.72,10.75,4.25,10.75,9.79v.1c0,6.26-4.92,10-11.94,10A20.59,20.59,0,0,1,115.18,62.14Z"/><path class="cls-1" d="M162.43,67v-3.1a10.19,10.19,0,0,1-8.17,3.63c-4.78,0-9-2.72-9-7.78v-.1c0-5.59,4.35-8.26,10.22-8.26a21.21,21.21,0,0,1,7,1.05V52c0-3.49-2.2-5.4-6.21-5.4a17.54,17.54,0,0,0-7.21,1.58l-1.58-4.63a21.6,21.6,0,0,1,9.6-2.1c7.45,0,11.08,3.92,11.08,10.65V67Zm.14-10.56a16.53,16.53,0,0,0-5.78-1c-3.63,0-5.78,1.48-5.78,3.92v.1c0,2.39,2.15,3.73,4.87,3.73,3.82,0,6.69-2.15,6.69-5.3Z"/><path class="cls-1" d="M175.52,46.77h-3.2V41.94h3.2V40.13c0-2.82.72-4.92,2.05-6.26a7.64,7.64,0,0,1,5.68-2,15.46,15.46,0,0,1,4.68.67v4.87a10.11,10.11,0,0,0-3.39-.62c-2.2,0-3.34,1.19-3.34,3.82V42h6.69v4.78H181.3V67h-5.78Z"/><path class="cls-1" d="M190.14,54.5v-.1c0-7.21,5.11-13.13,12.32-13.13,8,0,12.08,6.3,12.08,13.56,0,.52,0,1.05-.1,1.62H195.92a7,7,0,0,0,7.26,6.4,9.16,9.16,0,0,0,6.83-3l3.39,3a12.75,12.75,0,0,1-10.31,4.73C195.78,67.59,190.14,62.29,190.14,54.5Zm18.67-1.86c-.38-3.72-2.58-6.64-6.4-6.64-3.54,0-6,2.72-6.54,6.64Z"/><path class="cls-1" d="M215.78,33.58h6.35l8,24.79,8.22-24.88h5l8.21,24.88,8-24.79h6.16L254,67.25h-5.06l-8.21-24-8.22,24h-5.06Z"/><path class="cls-1" d="M267,54.55v-.1a13.45,13.45,0,0,1,26.89-.1v.1a13.18,13.18,0,0,1-13.52,13.13A13,13,0,0,1,267,54.55Zm21.11,0v-.1a7.79,7.79,0,0,0-7.73-8.12c-4.63,0-7.6,3.63-7.6,8v.1a7.81,7.81,0,0,0,7.69,8.12C285.14,62.57,288.1,58.9,288.1,54.55Z"/><path class="cls-1" d="M299.23,41.8H305v5.68c1.58-3.77,4.49-6.35,8.93-6.16v6.11h-.33c-5.06,0-8.6,3.29-8.6,10V67h-5.78Z"/><path class="cls-1" d="M316.81,54.45v-.1c0-8.36,5.68-13.09,11.7-13.09a10.43,10.43,0,0,1,8.59,4.44V32.15h5.78V67h-5.78v-4.2a10.08,10.08,0,0,1-8.59,4.73C322.59,67.54,316.81,62.81,316.81,54.45Zm20.4,0v-.1c0-4.87-3.44-8.07-7.31-8.07s-7.26,3.06-7.26,8.07v.1c0,4.87,3.34,8.07,7.26,8.07S337.2,59.28,337.2,54.45Z"/><path class="cls-1" d="M85.75,9.47a55.35,55.35,0,0,1-5.91.33A53.94,53.94,0,0,1,48.73,0V0l0,0,0,0V0A53.94,53.94,0,0,1,17.58,9.8a55.35,55.35,0,0,1-5.91-.33c-9.37,11-14,35.13-10.51,48.44,7.51,28.74,39.72,40,47.53,42.39h0c7.8-2.35,40-13.66,47.53-42.39C99.74,44.6,95.12,20.43,85.75,9.47Z"/><path class="cls-2" d="M29.61,48.51l-3.07,2.25a1.81,1.81,0,0,1-1,.41,1.4,1.4,0,0,1-1.35-1.39,1.49,1.49,0,0,1,.94-1.27L28.71,47l-3.6-1.59a1.42,1.42,0,0,1-.94-1.27,1.4,1.4,0,0,1,1.39-1.35,1.47,1.47,0,0,1,1,.41l3.07,2.25-.41-3.64a1.29,1.29,0,0,1,1.27-1.55,1.26,1.26,0,0,1,1.27,1.51l-.41,3.68,3.07-2.25a1.57,1.57,0,0,1,1-.41,1.36,1.36,0,0,1,1.35,1.35,1.38,1.38,0,0,1-.94,1.27L32.23,47l3.6,1.55a1.43,1.43,0,0,1,.94,1.31,1.4,1.4,0,0,1-1.39,1.35,1.82,1.82,0,0,1-1-.41l-3.07-2.25.41,3.64a1.29,1.29,0,0,1-1.27,1.55,1.26,1.26,0,0,1-1.27-1.51Z"/><path class="cls-2" d="M47.2,48.51l-3.07,2.25a1.81,1.81,0,0,1-1,.41,1.4,1.4,0,0,1-1.35-1.39,1.49,1.49,0,0,1,.94-1.27L46.3,47l-3.6-1.59a1.42,1.42,0,0,1-.94-1.27,1.4,1.4,0,0,1,1.39-1.35,1.47,1.47,0,0,1,1,.41L47.2,45.4l-.41-3.64a1.29,1.29,0,0,1,1.27-1.55,1.26,1.26,0,0,1,1.27,1.51l-.41,3.68L52,43.15a1.57,1.57,0,0,1,1-.41,1.36,1.36,0,0,1,1.35,1.35,1.38,1.38,0,0,1-.94,1.27L49.82,47l3.6,1.55a1.43,1.43,0,0,1,.94,1.31A1.4,1.4,0,0,1,53,51.16a1.82,1.82,0,0,1-1-.41l-3.07-2.25.41,3.64a1.29,1.29,0,0,1-1.27,1.55,1.26,1.26,0,0,1-1.27-1.51Z"/><path class="cls-2" d="M64.8,48.51l-3.07,2.25a1.81,1.81,0,0,1-1,.41,1.4,1.4,0,0,1-1.35-1.39,1.49,1.49,0,0,1,.94-1.27L63.9,47l-3.6-1.59a1.42,1.42,0,0,1-.94-1.27,1.4,1.4,0,0,1,1.39-1.35,1.47,1.47,0,0,1,1,.41L64.8,45.4l-.41-3.64a1.29,1.29,0,0,1,1.27-1.55,1.26,1.26,0,0,1,1.27,1.51l-.41,3.68,3.07-2.25a1.57,1.57,0,0,1,1-.41A1.36,1.36,0,0,1,72,44.09,1.38,1.38,0,0,1,71,45.36L67.41,47,71,48.51A1.43,1.43,0,0,1,72,49.81a1.4,1.4,0,0,1-1.39,1.35,1.82,1.82,0,0,1-1-.41l-3.07-2.25.41,3.64a1.29,1.29,0,0,1-1.27,1.55,1.26,1.26,0,0,1-1.27-1.51Z"/><path class="cls-2" d="M81.77,32.38V60.84H14.29V32.38H81.77m2.49-2.49H11.8V63.33H84.26V29.89Z"/></g></g></svg>