<svg xmlns="http://www.w3.org/2000/svg" viewBox="0 0 10.64 9.57"><defs><style>.cls-1{fill:#b2b7b9;}</style></defs><title>icon-snapshot-grey</title><g id="Layer_2" data-name="Layer 2"><g id="Layer_1-2" data-name="Layer 1"><path class="cls-1" d="M10,0H.64A.64.64,0,0,0,0,.64v8.3a.64.64,0,0,0,.64.64H10a.64.64,0,0,0,.64-.64V.64A.64.64,0,0,0,10,0ZM9.53,6.87a.27.27,0,0,1-.27.27H1.38a.27.27,0,0,1-.27-.27V1.45a.27.27,0,0,1,.27-.27H9.26a.27.27,0,0,1,.27.27Z"/><path class="cls-1" d="M6.15,4.94a1.52,1.52,0,1,0-1.66,0A3,3,0,0,0,2.82,6.78h5A3,3,0,0,0,6.15,4.94Z"/></g></g></svg>