<svg xmlns="http://www.w3.org/2000/svg" viewBox="0 0 10.64 9.57"><defs><style>.cls-1{fill:#b2b7b9;}</style></defs><title>icon-motion-grey</title><g id="Layer_2" data-name="Layer 2"><g id="Layer_1-2" data-name="Layer 1"><path class="cls-1" d="M10,0H.64A.64.64,0,0,0,0,.64v8.3a.64.64,0,0,0,.64.64H10a.64.64,0,0,0,.64-.64V.64A.64.64,0,0,0,10,0ZM2.61,2.45H4.67V3H2.61ZM1.18,4.21H4.57V4.8H1.18ZM3.44,6.66H1.66V6.07H3.44Zm.6.61A3.5,3.5,0,0,1,6,5,1.74,1.74,0,1,1,7.9,5a3.5,3.5,0,0,1,2,2.23Z"/></g></g></svg>