<svg xmlns="http://www.w3.org/2000/svg" viewBox="0 0 248.32 97.05"><defs><style>.cls-1{fill:#4d5254;}.cls-2{fill:#fed93e;}</style></defs><title>logo-small-text</title><g id="Layer_2" data-name="Layer 2"><g id="Layer_1-2" data-name="Layer 1"><path class="cls-1" d="M110.94,52.06l2.12-2.52a9.23,9.23,0,0,0,6.33,2.61c2.18,0,3.55-1,3.55-2.52v-.06c0-1.43-.8-2.2-4.52-3.06-4.27-1-6.67-2.29-6.67-6v-.06c0-3.44,2.86-5.81,6.85-5.81a11.11,11.11,0,0,1,7.27,2.52L124,39.83a9.11,9.11,0,0,0-5.44-2.06c-2.06,0-3.27,1.06-3.27,2.38v.06c0,1.55.92,2.23,4.75,3.15,4.24,1,6.45,2.55,6.45,5.87v.06c0,3.75-3,6-7.16,6A12.34,12.34,0,0,1,110.94,52.06Z"/><path class="cls-1" d="M139.38,55V53.12a6.11,6.11,0,0,1-4.9,2.18c-2.86,0-5.38-1.63-5.38-4.67v-.06c0-3.35,2.61-5,6.13-5a12.73,12.73,0,0,1,4.18.63V46c0-2.09-1.32-3.24-3.72-3.24a10.53,10.53,0,0,0-4.32.95l-.94-2.78a13,13,0,0,1,5.76-1.26c4.47,0,6.64,2.35,6.64,6.39v9Zm.09-6.33a9.92,9.92,0,0,0-3.47-.6c-2.17,0-3.47.89-3.47,2.35v.06c0,1.43,1.29,2.23,2.92,2.23,2.29,0,4-1.29,4-3.18Z"/><path class="cls-1" d="M147.35,42.84h-1.92V39.95h1.92V38.86a5.14,5.14,0,0,1,1.23-3.75,4.58,4.58,0,0,1,3.41-1.2,9.27,9.27,0,0,1,2.81.4v2.92a6.12,6.12,0,0,0-2-.37c-1.32,0-2,.72-2,2.29V40h4v2.86h-4V55h-3.46Z"/><path class="cls-1" d="M156.23,47.48v-.06c0-4.32,3.06-7.88,7.39-7.88,4.81,0,7.25,3.78,7.25,8.13,0,.32,0,.63-.06,1H159.7A4.22,4.22,0,0,0,164,52.49a5.49,5.49,0,0,0,4.09-1.8l2,1.8A7.65,7.65,0,0,1,164,55.33,7.54,7.54,0,0,1,156.23,47.48Zm11.2-1.12c-.23-2.23-1.55-4-3.84-4-2.12,0-3.61,1.63-3.92,4Z"/><path class="cls-1" d="M171.73,34.94h3.81l4.78,14.86,4.92-14.92h3l4.93,14.92,4.78-14.86h3.69l-7,20.19h-3l-4.92-14.4-4.93,14.4h-3Z"/><path class="cls-1" d="M202.58,47.51v-.06a8.06,8.06,0,0,1,16.12-.06v.06a7.91,7.91,0,0,1-8.1,7.88A7.82,7.82,0,0,1,202.58,47.51Zm12.66,0v-.06a4.67,4.67,0,0,0-4.64-4.87A4.54,4.54,0,0,0,206,47.4v.06a4.69,4.69,0,0,0,4.61,4.87A4.56,4.56,0,0,0,215.24,47.51Z"/><path class="cls-1" d="M222,39.86h3.47v3.41a5.36,5.36,0,0,1,5.35-3.69v3.67h-.2c-3,0-5.15,2-5.15,6V55H222Z"/><path class="cls-1" d="M232.68,47.45V47.4c0-5,3.41-7.85,7-7.85a6.26,6.26,0,0,1,5.15,2.66V34.08h3.47V55h-3.47V52.46a6.05,6.05,0,0,1-5.15,2.83C236.15,55.3,232.68,52.46,232.68,47.45Zm12.23,0V47.4a4.54,4.54,0,0,0-4.38-4.84c-2.38,0-4.35,1.83-4.35,4.84v.06c0,2.92,2,4.84,4.35,4.84A4.56,4.56,0,0,0,244.91,47.45Z"/><path class="cls-2" d="M82.95,9.16a53.54,53.54,0,0,1-5.72.31A52.18,52.18,0,0,1,47.14,0V0l0,0,0,0V0A52.18,52.18,0,0,1,17,9.48a53.54,53.54,0,0,1-5.72-.31C2.22,19.76-2.25,43.15,1.12,56c7.26,27.8,38.43,38.74,46,41h0c7.55-2.27,38.72-13.21,46-41C96.49,43.15,92,19.76,82.95,9.16Z"/><path class="cls-1" d="M28.65,46.92l-3,2.18a1.75,1.75,0,0,1-1,.4,1.35,1.35,0,0,1-1.31-1.34,1.44,1.44,0,0,1,.91-1.23l3.48-1.5-3.48-1.54a1.38,1.38,0,0,1-.91-1.23,1.35,1.35,0,0,1,1.34-1.3,1.42,1.42,0,0,1,.95.39l3,2.18-.39-3.52a1.25,1.25,0,0,1,1.23-1.5,1.22,1.22,0,0,1,1.23,1.46l-.39,3.56,3-2.18a1.52,1.52,0,0,1,1-.39,1.32,1.32,0,0,1,1.3,1.3,1.33,1.33,0,0,1-.91,1.23l-3.48,1.54,3.48,1.5a1.39,1.39,0,0,1,.91,1.27,1.35,1.35,0,0,1-1.34,1.31,1.76,1.76,0,0,1-1-.4l-3-2.18.39,3.52a1.25,1.25,0,0,1-1.23,1.5,1.22,1.22,0,0,1-1.23-1.47Z"/><path class="cls-1" d="M45.66,46.92l-3,2.18a1.75,1.75,0,0,1-1,.4,1.35,1.35,0,0,1-1.31-1.34,1.44,1.44,0,0,1,.91-1.23l3.48-1.5-3.48-1.54a1.38,1.38,0,0,1-.91-1.23,1.35,1.35,0,0,1,1.34-1.3,1.42,1.42,0,0,1,.95.39l3,2.18-.39-3.52a1.25,1.25,0,0,1,1.23-1.5,1.22,1.22,0,0,1,1.23,1.46l-.39,3.56,3-2.18a1.52,1.52,0,0,1,1-.39,1.32,1.32,0,0,1,1.31,1.3,1.33,1.33,0,0,1-.91,1.23L48.2,45.42l3.48,1.5a1.39,1.39,0,0,1,.91,1.27,1.35,1.35,0,0,1-1.34,1.31,1.76,1.76,0,0,1-1-.4l-3-2.18.39,3.52a1.25,1.25,0,0,1-1.23,1.5,1.22,1.22,0,0,1-1.23-1.47Z"/><path class="cls-1" d="M62.68,46.92l-3,2.18a1.75,1.75,0,0,1-1,.4,1.35,1.35,0,0,1-1.31-1.34,1.44,1.44,0,0,1,.91-1.23l3.48-1.5-3.48-1.54a1.38,1.38,0,0,1-.91-1.23,1.35,1.35,0,0,1,1.34-1.3,1.42,1.42,0,0,1,.95.39l3,2.18-.39-3.52a1.25,1.25,0,0,1,1.23-1.5,1.22,1.22,0,0,1,1.23,1.46l-.39,3.56,3-2.18a1.52,1.52,0,0,1,1-.39,1.32,1.32,0,0,1,1.3,1.3,1.33,1.33,0,0,1-.91,1.23l-3.48,1.54,3.48,1.5a1.39,1.39,0,0,1,.91,1.27,1.35,1.35,0,0,1-1.34,1.31,1.76,1.76,0,0,1-1-.4l-3-2.18.39,3.52a1.25,1.25,0,0,1-1.23,1.5,1.22,1.22,0,0,1-1.23-1.47Z"/><path class="cls-1" d="M79.1,31.32V58.85H13.83V31.32H79.1m2.41-2.41H11.42V61.26H81.51V28.91Z"/></g></g></svg>