<svg xmlns="http://www.w3.org/2000/svg" viewBox="0 0 278.06 97.05"><defs><style>.cls-1{fill:#4d5254;}.cls-2{fill:#fed93e;}</style></defs><title>logo</title><g id="Layer_2" data-name="Layer 2"><g id="Layer_1-2" data-name="Layer 1"><path class="cls-1" d="M110.94,53.67l2.58-3.07a11.23,11.23,0,0,0,7.7,3.17c2.65,0,4.32-1.22,4.32-3.07v-.07c0-1.74-1-2.68-5.5-3.73-5.19-1.25-8.12-2.79-8.12-7.28v-.07c0-4.18,3.49-7.07,8.33-7.07a13.52,13.52,0,0,1,8.85,3.07l-2.3,3.24a11.08,11.08,0,0,0-6.62-2.51c-2.51,0-4,1.29-4,2.89v.07c0,1.88,1.12,2.72,5.78,3.83,5.16,1.25,7.84,3.1,7.84,7.14v.07c0,4.56-3.59,7.28-8.71,7.28A15,15,0,0,1,110.94,53.67Z"/><path class="cls-1" d="M145.54,57.23V55a7.43,7.43,0,0,1-6,2.65c-3.48,0-6.55-2-6.55-5.68v-.07c0-4.08,3.17-6,7.46-6a15.48,15.48,0,0,1,5.09.77v-.35c0-2.54-1.6-3.94-4.53-3.94a12.8,12.8,0,0,0-5.26,1.15l-1.15-3.38a15.79,15.79,0,0,1,7-1.53c5.43,0,8.08,2.86,8.08,7.77v10.9Zm.1-7.7a12.06,12.06,0,0,0-4.22-.73c-2.65,0-4.22,1.08-4.22,2.86v.07c0,1.74,1.57,2.72,3.55,2.72,2.79,0,4.88-1.57,4.88-3.87Z"/><path class="cls-1" d="M155.23,42.46H152.9V38.94h2.34V37.61a6.26,6.26,0,0,1,1.5-4.56,5.57,5.57,0,0,1,4.15-1.46,11.28,11.28,0,0,1,3.41.49v3.55a7.44,7.44,0,0,0-2.48-.45c-1.6,0-2.44.87-2.44,2.79v1h4.88v3.48h-4.81V57.23h-4.21Z"/><path class="cls-1" d="M166,48.1V48c0-5.26,3.73-9.58,9-9.58,5.85,0,8.81,4.6,8.81,9.89,0,.38,0,.77-.07,1.18H170.25a5.14,5.14,0,0,0,5.3,4.67,6.68,6.68,0,0,0,5-2.19L183,54.2a9.3,9.3,0,0,1-7.52,3.45A9.18,9.18,0,0,1,166,48.1Zm13.62-1.36c-.28-2.72-1.88-4.84-4.67-4.84-2.58,0-4.39,2-4.77,4.84Z"/><path class="cls-1" d="M184.9,32.84h4.63l5.82,18.08,6-18.15H205l6,18.15,5.82-18.08h4.49l-8.5,24.56h-3.69l-6-17.52-6,17.52H193.4Z"/><path class="cls-1" d="M222.42,48.14v-.07A9.81,9.81,0,0,1,242,48v.07a9.62,9.62,0,0,1-9.86,9.58A9.51,9.51,0,0,1,222.42,48.14Zm15.4,0v-.07a5.68,5.68,0,0,0-5.64-5.92A5.52,5.52,0,0,0,226.64,48v.07A5.7,5.7,0,0,0,232.25,54,5.55,5.55,0,0,0,237.82,48.14Z"/><path class="cls-1" d="M246.08,38.83h4.22V43c1.15-2.75,3.27-4.63,6.51-4.49v4.46h-.24c-3.69,0-6.27,2.4-6.27,7.28v7h-4.22Z"/><path class="cls-1" d="M259,48.07V48c0-6.1,4.14-9.55,8.54-9.55a7.61,7.61,0,0,1,6.27,3.24V31.8h4.22V57.23h-4.22V54.16a7.36,7.36,0,0,1-6.27,3.45C263.26,57.61,259,54.16,259,48.07Zm14.88,0V48c0-3.55-2.51-5.89-5.33-5.89S263.3,44.34,263.3,48v.07c0,3.55,2.44,5.89,5.29,5.89S273.92,51.58,273.92,48.07Z"/><path class="cls-2" d="M82.95,9.16a53.54,53.54,0,0,1-5.72.31A52.18,52.18,0,0,1,47.14,0V0l0,0,0,0V0A52.18,52.18,0,0,1,17,9.48a53.54,53.54,0,0,1-5.72-.31C2.22,19.76-2.25,43.15,1.12,56c7.26,27.8,38.43,38.74,46,41h0c7.55-2.27,38.72-13.21,46-41C96.49,43.15,92,19.76,82.95,9.16Z"/><path class="cls-1" d="M28.65,46.92l-3,2.18a1.75,1.75,0,0,1-1,.4,1.35,1.35,0,0,1-1.31-1.34,1.44,1.44,0,0,1,.91-1.23l3.48-1.5-3.48-1.54a1.38,1.38,0,0,1-.91-1.23,1.35,1.35,0,0,1,1.34-1.3,1.42,1.42,0,0,1,.95.39l3,2.18-.39-3.52a1.25,1.25,0,0,1,1.23-1.5,1.22,1.22,0,0,1,1.23,1.46l-.39,3.56,3-2.18a1.52,1.52,0,0,1,1-.39,1.32,1.32,0,0,1,1.3,1.3,1.33,1.33,0,0,1-.91,1.23l-3.48,1.54,3.48,1.5a1.39,1.39,0,0,1,.91,1.27,1.35,1.35,0,0,1-1.34,1.31,1.76,1.76,0,0,1-1-.4l-3-2.18.39,3.52a1.25,1.25,0,0,1-1.23,1.5,1.22,1.22,0,0,1-1.23-1.47Z"/><path class="cls-1" d="M45.66,46.92l-3,2.18a1.75,1.75,0,0,1-1,.4,1.35,1.35,0,0,1-1.31-1.34,1.44,1.44,0,0,1,.91-1.23l3.48-1.5-3.48-1.54a1.38,1.38,0,0,1-.91-1.23,1.35,1.35,0,0,1,1.34-1.3,1.42,1.42,0,0,1,.95.39l3,2.18-.39-3.52a1.25,1.25,0,0,1,1.23-1.5,1.22,1.22,0,0,1,1.23,1.46l-.39,3.56,3-2.18a1.52,1.52,0,0,1,1-.39,1.32,1.32,0,0,1,1.31,1.3,1.33,1.33,0,0,1-.91,1.23L48.2,45.42l3.48,1.5a1.39,1.39,0,0,1,.91,1.27,1.35,1.35,0,0,1-1.34,1.31,1.76,1.76,0,0,1-1-.4l-3-2.18.39,3.52a1.25,1.25,0,0,1-1.23,1.5,1.22,1.22,0,0,1-1.23-1.47Z"/><path class="cls-1" d="M62.68,46.92l-3,2.18a1.75,1.75,0,0,1-1,.4,1.35,1.35,0,0,1-1.31-1.34,1.44,1.44,0,0,1,.91-1.23l3.48-1.5-3.48-1.54a1.38,1.38,0,0,1-.91-1.23,1.35,1.35,0,0,1,1.34-1.3,1.42,1.42,0,0,1,.95.39l3,2.18-.39-3.52a1.25,1.25,0,0,1,1.23-1.5,1.22,1.22,0,0,1,1.23,1.46l-.39,3.56,3-2.18a1.52,1.52,0,0,1,1-.39,1.32,1.32,0,0,1,1.3,1.3,1.33,1.33,0,0,1-.91,1.23l-3.48,1.54,3.48,1.5a1.39,1.39,0,0,1,.91,1.27,1.35,1.35,0,0,1-1.34,1.31,1.76,1.76,0,0,1-1-.4l-3-2.18.39,3.52a1.25,1.25,0,0,1-1.23,1.5,1.22,1.22,0,0,1-1.23-1.47Z"/><path class="cls-1" d="M79.1,31.32V58.85H13.83V31.32H79.1m2.41-2.41H11.42V61.26H81.51V28.91Z"/></g></g></svg>