<svg xmlns="http://www.w3.org/2000/svg" viewBox="0 0 77 26"><defs><style>.cls-1{fill:#fed93e;}.cls-2{fill:#4d5254;}</style></defs><title>step-1</title><g id="Layer_2" data-name="Layer 2"><g id="Layer_1-2" data-name="Layer 1"><rect class="cls-1" width="77" height="26" rx="1.79" ry="1.79"/><path class="cls-2" d="M17.46,9.7H16.2V8.54a3,3,0,0,0-3-3H12.07a3,3,0,0,0-3,3V9.7H7.82a.82.82,0,0,0-.82.82v7.35a.82.82,0,0,0,.82.82h9.64a.82.82,0,0,0,.82-.82V10.52A.82.82,0,0,0,17.46,9.7Zm-4.23,5.11v.84a.59.59,0,1,1-1.19,0v-.84a1.58,1.58,0,1,1,1.19,0ZM14.7,9.7H10.58V8.54A1.5,1.5,0,0,1,12.07,7H13.2a1.5,1.5,0,0,1,1.5,1.5Z"/><path class="cls-2" d="M25.16,14.58l-1.84,1.35a1.08,1.08,0,0,1-.61.24.84.84,0,0,1-.81-.83.89.89,0,0,1,.56-.76l2.16-.93-2.16-1a.85.85,0,0,1-.56-.76.84.84,0,0,1,.83-.81.88.88,0,0,1,.59.25l1.84,1.35-.24-2.18a.77.77,0,0,1,.76-.93.75.75,0,0,1,.76.91l-.24,2.2L28,11.38a.94.94,0,0,1,.61-.25.82.82,0,0,1,.81.81.82.82,0,0,1-.56.76l-2.16,1,2.16.93a.86.86,0,0,1,.56.78.84.84,0,0,1-.83.81,1.08,1.08,0,0,1-.59-.24l-1.84-1.35.24,2.18a.77.77,0,0,1-.76.93.75.75,0,0,1-.76-.91Z"/><path class="cls-2" d="M35.69,14.58l-1.84,1.35a1.08,1.08,0,0,1-.61.24.84.84,0,0,1-.81-.83.89.89,0,0,1,.56-.76l2.16-.93L33,12.7a.85.85,0,0,1-.56-.76.84.84,0,0,1,.83-.81.88.88,0,0,1,.59.25l1.84,1.35-.24-2.18a.77.77,0,0,1,.76-.93.75.75,0,0,1,.76.91l-.24,2.2,1.84-1.35a.94.94,0,0,1,.61-.25.82.82,0,0,1,.81.81.82.82,0,0,1-.56.76l-2.16,1,2.16.93a.86.86,0,0,1,.56.78.84.84,0,0,1-.83.81,1.08,1.08,0,0,1-.59-.24l-1.84-1.35L37,16.76a.77.77,0,0,1-.76.93.75.75,0,0,1-.76-.91Z"/><path class="cls-2" d="M46.22,14.58l-1.84,1.35a1.08,1.08,0,0,1-.61.24.84.84,0,0,1-.81-.83.89.89,0,0,1,.56-.76l2.16-.93-2.16-1a.85.85,0,0,1-.56-.76.84.84,0,0,1,.83-.81.88.88,0,0,1,.59.25l1.84,1.35L46,10.54a.77.77,0,0,1,.76-.93.75.75,0,0,1,.76.91l-.24,2.2,1.84-1.35a.94.94,0,0,1,.61-.25.82.82,0,0,1,.81.81.82.82,0,0,1-.56.76l-2.16,1,2.16.93a.86.86,0,0,1,.56.78.84.84,0,0,1-.83.81,1.08,1.08,0,0,1-.59-.24l-1.84-1.35.24,2.18a.77.77,0,0,1-.76.93.75.75,0,0,1-.76-.91Z"/><rect class="cls-2" x="54" y="5" width="1" height="16"/></g></g></svg>