<svg xmlns="http://www.w3.org/2000/svg" viewBox="0 0 69.18 58.19"><defs><style>.cls-1,.cls-4{fill:#fed93e;}.cls-2{fill:#4d5254;}.cls-3{fill:#fff;}.cls-4{font-size:8.34px;font-family:GothamRounded-Bold, Gotham Rounded;font-weight:700;}</style></defs><title>step-3</title><g id="Layer_2" data-name="Layer 2"><g id="Layer_1-2" data-name="Layer 1"><rect class="cls-1" y="16.74" width="69.18" height="24.55" rx="11.81" ry="11.81"/><circle class="cls-1" cx="25.66" cy="16.74" r="16.74"/><circle class="cls-1" cx="46.3" cy="16.18" r="12.83"/><rect class="cls-2" x="10.42" y="25.42" width="10.64" height="9.57" rx="0.64" ry="0.64"/><path class="cls-1" d="M18.21,29.91l-3.7-2.14a.35.35,0,0,0-.52.3v4.27a.35.35,0,0,0,.52.3l3.7-2.14A.35.35,0,0,0,18.21,29.91Z"/><rect class="cls-2" x="38.83" y="10.42" width="10.64" height="9.57" rx="0.64" ry="0.64"/><rect class="cls-1" x="39.93" y="11.61" width="8.42" height="5.97" rx="0.27" ry="0.27"/><path class="cls-2" d="M41.64,17.2h5A3,3,0,0,0,45,15.36a1.52,1.52,0,1,0-1.66,0A3,3,0,0,0,41.64,17.2Z"/><path class="cls-2" d="M23.25,18.61H16.78a.33.33,0,0,1-.33-.33V13.89a.33.33,0,0,1,.33-.33h6.47c.18,0,.33-.72.33-.53v6.13C23.58,19.33,23.43,18.61,23.25,18.61Z"/><path class="cls-2" d="M24.26,20.57a.38.38,0,0,1-.56.38l-4-2.53a1,1,0,0,1-.56-.85v-3a1,1,0,0,1,.56-.85l4-2.53a.38.38,0,0,1,.56.38Z"/><rect class="cls-2" x="25.71" y="11" width="3.69" height="0.82" transform="translate(-2.19 13.54) rotate(-26.6)"/><rect class="cls-2" x="27.15" y="18.36" width="0.82" height="3.69" transform="translate(-2.84 35.81) rotate(-63.43)"/><rect class="cls-2" x="27.01" y="15.39" width="3.3" height="0.82"/><rect class="cls-3" x="27.95" y="25.44" width="32.16" height="28.31" rx="3.84" ry="3.84"/><rect class="cls-1" x="30.23" y="27.74" width="27.46" height="24.91" rx="2.34" ry="2.34"/><polygon class="cls-1" points="53.65 58.19 45.35 49.88 53.65 49.88 53.65 58.19"/><path class="cls-2" d="M43.62,31.4,38.05,41a.91.91,0,0,0,.78,1.36H50A.91.91,0,0,0,50.76,41L45.19,31.4A.91.91,0,0,0,43.62,31.4Z"/><text class="cls-4" transform="translate(43.01 40.51)">!</text><path class="cls-2" d="M38.44,48.6a.31.31,0,0,1-.15-.28.33.33,0,0,1,.33-.33.36.36,0,0,1,.18,0,1.88,1.88,0,0,0,1,.34c.35,0,.55-.15.55-.38h0c0-.28-.38-.37-.79-.5s-1.11-.36-1.11-1h0a1.13,1.13,0,0,1,1.27-1.08,2.45,2.45,0,0,1,1.12.29.34.34,0,0,1,.19.31.33.33,0,0,1-.34.33.32.32,0,0,1-.16,0A1.94,1.94,0,0,0,39.7,46c-.32,0-.5.15-.5.35h0c0,.26.38.37.8.5s1.1.4,1.1,1h0c0,.75-.58,1.12-1.32,1.12A2.43,2.43,0,0,1,38.44,48.6Z"/><path class="cls-2" d="M41.94,45.77a.4.4,0,0,1,.4-.41.41.41,0,0,1,.41.41v.17a1.27,1.27,0,0,1,1.08-.61A1.13,1.13,0,0,1,44.9,46a1.43,1.43,0,0,1,1.2-.63,1.19,1.19,0,0,1,1.25,1.36v1.9a.4.4,0,0,1-.4.4.4.4,0,0,1-.41-.4V46.94c0-.57-.26-.87-.72-.87S45,46.38,45,47v1.64a.41.41,0,0,1-.81,0V46.93c0-.55-.27-.86-.72-.86a.78.78,0,0,0-.76.88v1.64a.41.41,0,0,1-.81,0Z"/><path class="cls-2" d="M48.19,48.6a.31.31,0,0,1-.15-.28.33.33,0,0,1,.33-.33.36.36,0,0,1,.18,0,1.88,1.88,0,0,0,1,.34c.35,0,.55-.15.55-.38h0c0-.28-.38-.37-.79-.5s-1.11-.36-1.11-1h0a1.13,1.13,0,0,1,1.27-1.08,2.45,2.45,0,0,1,1.12.29.34.34,0,0,1,.19.31.33.33,0,0,1-.34.33.32.32,0,0,1-.16,0,1.94,1.94,0,0,0-.84-.24c-.32,0-.5.15-.5.35h0c0,.26.38.37.8.5s1.1.4,1.1,1h0c0,.75-.58,1.12-1.32,1.12A2.43,2.43,0,0,1,48.19,48.6Z"/></g></g></svg>