<svg xmlns="http://www.w3.org/2000/svg" viewBox="0 0 54.14 61.45"><defs><style>.cls-1{fill:#fed93e;}.cls-2{fill:#4d5254;}</style></defs><title>step-2</title><g id="Layer_2" data-name="Layer 2"><g id="Layer_1-2" data-name="Layer 1"><path class="cls-1" d="M31.72.41A27.06,27.06,0,0,0,20.64,53.35l-1.31,8.1s14.38-4.2,24.52-13.15A27.06,27.06,0,0,0,31.72.41Z"/><path class="cls-2" d="M16.29,28.06,14.46,29.4a1.08,1.08,0,0,1-.61.24.84.84,0,0,1-.81-.83.89.89,0,0,1,.56-.76l2.16-.93-2.16-1a.85.85,0,0,1-.56-.76.84.84,0,0,1,.83-.81.88.88,0,0,1,.59.25l1.84,1.35L16,24a.77.77,0,0,1,.76-.93.75.75,0,0,1,.76.91l-.24,2.2,1.84-1.35a.94.94,0,0,1,.61-.25.82.82,0,0,1,.81.81.82.82,0,0,1-.56.76l-2.16,1,2.16.93a.86.86,0,0,1,.56.78.84.84,0,0,1-.83.81,1.08,1.08,0,0,1-.59-.24l-1.84-1.35.24,2.18a.77.77,0,0,1-.76.93.75.75,0,0,1-.76-.91Z"/><path class="cls-2" d="M26.82,28.06,25,29.4a1.08,1.08,0,0,1-.61.24.84.84,0,0,1-.81-.83.89.89,0,0,1,.56-.76l2.16-.93-2.16-1a.85.85,0,0,1-.56-.76.84.84,0,0,1,.83-.81.88.88,0,0,1,.59.25l1.84,1.35L26.58,24a.77.77,0,0,1,.76-.93.75.75,0,0,1,.76.91l-.25,2.2,1.84-1.35a.94.94,0,0,1,.61-.25.82.82,0,0,1,.81.81.83.83,0,0,1-.56.76l-2.16,1,2.16.93a.86.86,0,0,1,.56.78.84.84,0,0,1-.83.81,1.08,1.08,0,0,1-.59-.24l-1.84-1.35.25,2.18a.77.77,0,0,1-.76.93.75.75,0,0,1-.76-.91Z"/><path class="cls-2" d="M37.36,28.06,35.52,29.4a1.09,1.09,0,0,1-.61.24.84.84,0,0,1-.81-.83.89.89,0,0,1,.56-.76l2.15-.93-2.15-1a.85.85,0,0,1-.56-.76.84.84,0,0,1,.83-.81.88.88,0,0,1,.59.25l1.84,1.35L37.11,24a.77.77,0,0,1,.76-.93.75.75,0,0,1,.76.91l-.24,2.2,1.84-1.35a.94.94,0,0,1,.61-.25.82.82,0,0,1,.81.81.82.82,0,0,1-.56.76l-2.16,1,2.16.93a.86.86,0,0,1,.56.78.84.84,0,0,1-.83.81,1.09,1.09,0,0,1-.59-.24l-1.84-1.35.24,2.18a.77.77,0,0,1-.76.93.75.75,0,0,1-.76-.91Z"/></g></g></svg>